<svg width="30" height="30" viewBox="0 0 30 30" fill="none" xmlns="http://www.w3.org/2000/svg">
<rect width="30" height="30" rx="3" fill="white"/>
<path d="M20.1626 20.0768H11.9483C11.2332 20.0768 10.6514 19.5444 10.6514 18.89C10.6514 18.2355 11.2332 17.7031 11.9483 17.7031H13.2453L12.466 18.4944H11.9483C11.7098 18.4944 11.516 18.6717 11.516 18.89C11.516 19.1083 11.7098 19.2856 11.9483 19.2856H20.1626V20.0768Z" fill="#F9C2D2"/>
<path d="M16.272 19.2859H20.1629V20.0771H16.272V19.2859Z" fill="#F98AAB"/>
<path opacity="0.5" d="M11.1237 12.9561L10.7373 11.3735H8V10.5823H11.4305L12.1795 13.6514L11.1237 12.9561Z" fill="#F98AAB"/>
<path d="M18.1293 13.0914L18.0001 12.9558H11.1255L12.4672 18.4944H20.0663L21.59 13.0988C21.294 13.1664 19.5431 14.5778 18.1293 13.0914ZM20.3044 14.4884L20.0669 15.3295H18.0395L18.1494 14.1226C18.7835 14.4762 19.5627 14.6168 20.3044 14.4884ZM15.3735 15.3295L15.2294 13.747H17.3164L17.1722 15.3295H15.3735ZM17.1002 16.1207L16.9561 17.7032H15.5896L15.4455 16.1207H17.1002ZM14.3621 13.747L14.5063 15.3295H12.5863L12.2029 13.747H14.3621ZM12.778 16.1207H14.5783L14.7224 17.7032H13.1613L12.778 16.1207ZM17.8234 17.7032L17.9675 16.1207H19.8436L19.3967 17.7032H17.8234Z" fill="#F9C2D2"/>
<path d="M18.1284 13.0914L17.9992 12.9558H16.272V13.747H17.3155L17.1713 15.3295H16.272V16.1207H17.0993L16.9552 17.7032H16.272V18.4944H20.0654L21.5891 13.0988C21.2931 13.1664 19.5422 14.5778 18.1284 13.0914ZM19.3958 17.7032H17.8224L17.9666 16.1207H19.8426L19.3958 17.7032ZM20.3035 14.4884L20.066 15.3295H18.0386L18.1485 14.1226C18.7826 14.4762 19.5618 14.6168 20.3035 14.4884Z" fill="#F98AAB"/>
<path d="M13.6778 21.6596C12.9627 21.6596 12.3809 21.1272 12.3809 20.4727C12.3809 19.8183 12.9627 19.2859 13.6778 19.2859C14.393 19.2859 14.9748 19.8183 14.9748 20.4727C14.9748 21.1272 14.393 21.6596 13.6778 21.6596Z" fill="#665151"/>
<path d="M18.0011 21.6596C17.2859 21.6596 16.7041 21.1272 16.7041 20.4727C16.7041 19.8183 17.2859 19.2859 18.0011 19.2859C18.7163 19.2859 19.2981 19.8183 19.2981 20.4727C19.2981 21.1272 18.7163 21.6596 18.0011 21.6596Z" fill="#4D3535"/>
<path d="M19.7304 14.5386C18.0155 14.5386 16.7041 13.2565 16.7041 11.7693C16.7041 10.2425 18.0619 9 19.7304 9C21.3989 9 22.7567 10.2425 22.7567 11.7693C22.7567 13.3333 21.3684 14.5386 19.7304 14.5386Z" fill="#F9C2D2"/>
<path d="M13.6779 20.8686C13.9167 20.8686 14.1103 20.6915 14.1103 20.473C14.1103 20.2545 13.9167 20.0774 13.6779 20.0774C13.4392 20.0774 13.2456 20.2545 13.2456 20.473C13.2456 20.6915 13.4392 20.8686 13.6779 20.8686Z" fill="#FFF7E6"/>
<path d="M18.0012 20.8686C18.2399 20.8686 18.4335 20.6915 18.4335 20.473C18.4335 20.2545 18.2399 20.0774 18.0012 20.0774C17.7624 20.0774 17.5688 20.2545 17.5688 20.473C17.5688 20.6915 17.7624 20.8686 18.0012 20.8686Z" fill="#FFEACC"/>
<path d="M22.7568 11.7693C22.7568 10.2425 21.399 9 19.7305 9V14.5386C21.3685 14.5386 22.7568 13.3333 22.7568 11.7693Z" fill="#F98AAB"/>
<path d="M21.0276 11.3735H20.1629V10.5823H19.2982V11.3735H18.4336V12.1647H19.2982V12.956H20.1629V12.1647H21.0276V11.3735Z" fill="white"/>
<path d="M19.7305 10.5823V12.956H20.1628V12.1647H21.0274V11.3735H20.1628V10.5823H19.7305Z" fill="white"/>
</svg>
