<svg width="30" height="31" viewBox="0 0 30 31" fill="none" xmlns="http://www.w3.org/2000/svg">
<rect width="30" height="30.8" rx="3" fill="white"/>
<path d="M15.3839 10.3949C16.2553 10.0234 16.7238 9.15841 16.5119 8.31251C16.3001 7.46661 15.4645 6.86572 14.5 6.86572C13.5356 6.86572 12.7 7.46661 12.488 8.31251C12.2763 9.15841 12.7448 10.0234 13.6162 10.3949H15.3839Z" fill="#F98AAB"/>
<path d="M12.1624 11.1007C12.0865 11.1007 12.0139 11.0668 11.9619 11.0067C10.8196 9.69465 10.7583 7.66436 11.8187 6.27371C11.8804 6.18868 11.9798 6.1465 12.0784 6.1637C12.1769 6.18089 12.2591 6.25463 12.2931 6.35645C12.3271 6.45827 12.3078 6.57204 12.2424 6.65384C11.3585 7.81278 11.4102 9.50512 12.3628 10.598C12.4379 10.6846 12.4585 10.8115 12.4149 10.9209C12.3713 11.0301 12.2721 11.1007 12.1624 11.1007Z" fill="#F98AAB"/>
<path d="M17.2669 9.68908C17.1613 9.68908 17.0635 9.64341 17.0085 9.56861C16.9535 9.49371 16.9493 9.40055 16.9974 9.32259C17.5498 8.42982 17.4079 7.3495 16.6366 6.57663C16.5646 6.50761 16.5432 6.41163 16.5807 6.32573C16.6184 6.23983 16.709 6.17761 16.8176 6.16311C16.9262 6.1486 17.0358 6.18418 17.1039 6.25592C18.0295 7.1837 18.1998 8.48036 17.537 9.55218C17.4851 9.63638 17.3807 9.68919 17.2669 9.68908Z" fill="#F98AAB"/>
<path d="M19.9998 14.2346V18.7866C19.9998 18.7866 19.9998 20.3366 19.0812 21.2338C18.9771 21.3402 18.9194 21.4883 18.9222 21.6421V22.5249C18.9213 22.8421 18.6806 23.0991 18.3833 23.1001H14.0727C13.7754 23.0991 13.5347 22.8421 13.5339 22.5249V22.4185C13.5343 21.9575 13.3604 21.5158 13.0516 21.1936C12.5315 20.6529 11.7287 19.7183 11.3785 18.7866C10.8396 17.3488 9.762 15.3359 9.22319 14.7608C8.68437 14.1857 9.22319 13.6106 9.762 13.6106C10.3008 13.6106 11.3785 14.7608 11.9173 15.6235C12.0888 15.9012 12.2895 16.1568 12.5154 16.3855C12.6495 16.5186 12.8379 16.5696 13.0152 16.5207C13.1925 16.4717 13.3341 16.3297 13.391 16.144C13.4936 15.7894 13.5419 15.4194 13.5339 15.0484V8.43451C13.5322 8.06897 13.7489 7.74278 14.0727 7.62356C14.1587 7.58875 14.25 7.57127 14.342 7.57179C14.7884 7.57179 15.1503 7.95804 15.1503 8.43451V11.8853C15.1486 11.5196 15.3653 11.1935 15.6891 11.0743C15.7752 11.0395 15.8666 11.0219 15.9586 11.0225C16.4049 11.0225 16.7668 11.4088 16.7668 11.8853V12.7479C16.7668 12.5191 16.8521 12.2997 17.0039 12.1383C17.0883 12.0468 17.1916 11.9778 17.3056 11.937C17.3917 11.9022 17.483 11.8846 17.5751 11.8853C18.0215 11.8853 18.3833 12.2715 18.3833 12.7479V14.1857C18.3833 13.957 18.4686 13.7376 18.6204 13.5761C18.7047 13.4846 18.8082 13.4156 18.9222 13.3747C19.0272 13.3336 19.1392 13.3169 19.2508 13.3259C19.6836 13.3753 20.0091 13.77 19.9998 14.2346V14.2346Z" fill="#F98AAB"/>
<path d="M14.515 7.58961C14.4202 7.5891 14.3261 7.60641 14.2376 7.64091C13.904 7.75903 13.6808 8.08223 13.6825 8.44442V14.9977C13.6908 15.3652 13.641 15.7319 13.5354 16.0832C13.4916 16.2152 13.4029 16.3265 13.2856 16.3966C13.4299 16.4836 13.6047 16.4987 13.7611 16.4378C13.9176 16.3769 14.0387 16.2465 14.0904 16.0832C14.1961 15.7319 14.2458 15.3652 14.2376 14.9977V8.44442C14.2358 8.08223 14.459 7.75903 14.7926 7.64091C14.7039 7.60641 14.6098 7.5891 14.515 7.58961V7.58961Z" fill="#F8EDF0"/>
<path d="M15.9032 11.0598C15.5696 11.1779 15.3464 11.501 15.3482 11.8633V14.4276C15.3482 14.585 15.4725 14.7125 15.6257 14.7125C15.7789 14.7125 15.9032 14.585 15.9032 14.4276V11.8633C15.9016 11.501 16.1247 11.1779 16.4582 11.0598C16.2792 10.9915 16.0822 10.9915 15.9032 11.0598V11.0598Z" fill="#F8EDF0"/>
<path d="M17.5711 11.915C17.4537 11.9554 17.3473 12.0238 17.2603 12.1145C17.1041 12.2744 17.0161 12.4918 17.0161 12.7184V14.428C17.0161 14.5854 17.1404 14.7129 17.2937 14.7129C17.447 14.7129 17.5711 14.5854 17.5711 14.428V12.7184C17.5695 12.3562 17.7928 12.0332 18.1263 11.915C17.9473 11.8467 17.7503 11.8467 17.5711 11.915V11.915Z" fill="#F8EDF0"/>
<path d="M19.5127 13.2881C19.418 13.2875 19.3238 13.3048 19.2352 13.3393C19.1178 13.3798 19.0112 13.4482 18.9244 13.5388C18.768 13.6988 18.6802 13.9162 18.6802 14.1428V14.7126C18.6802 14.87 18.8043 14.9976 18.9576 14.9976C19.1109 14.9976 19.2352 14.87 19.2352 14.7126V14.1428C19.2335 13.7806 19.4567 13.4575 19.7902 13.3393C19.7015 13.3048 19.6075 13.2875 19.5127 13.2881V13.2881Z" fill="#F8EDF0"/>
<path d="M18.9688 16.0417C18.779 16.0417 18.625 16.1603 18.625 16.3065V17.8945C18.625 18.0407 18.779 18.1592 18.9688 18.1592C19.1587 18.1592 19.3125 18.0407 19.3125 17.8945V16.3065C19.3125 16.1603 19.1587 16.0417 18.9688 16.0417V16.0417Z" fill="#F8EDF0"/>
<path d="M19.09 18.865C18.967 18.868 18.8657 19.0153 18.856 19.2049C18.839 19.3842 18.7818 19.5485 18.6947 19.6696C18.6353 19.7583 18.6116 19.8896 18.6324 20.0129C18.6533 20.1364 18.7157 20.2329 18.7954 20.2652C18.8752 20.2974 18.9601 20.2607 19.0174 20.1688C19.1911 19.9203 19.2967 19.5783 19.3125 19.213C19.3123 19.0225 19.2132 18.8675 19.09 18.865V18.865Z" fill="#F8EDF0"/>
<path d="M14.9583 21.6882H14.7292C14.6026 21.6882 14.5 21.8461 14.5 22.0411C14.5 22.236 14.6026 22.3941 14.7292 22.3941H14.9583C15.0849 22.3941 15.1875 22.236 15.1875 22.0411C15.1875 21.8461 15.0849 21.6882 14.9583 21.6882V21.6882Z" fill="#F8EDF0"/>
<path d="M17.7084 21.6882H16.1042C15.9776 21.6882 15.875 21.8461 15.875 22.0411C15.875 22.236 15.9776 22.3941 16.1042 22.3941H17.7084C17.835 22.3941 17.9375 22.236 17.9375 22.0411C17.9375 21.8461 17.835 21.6882 17.7084 21.6882V21.6882Z" fill="#F8EDF0"/>
</svg>
